<?xml version="1.0" encoding="utf-8"?>
<!-- Generator: Adobe Illustrator 22.1.0, SVG Export Plug-In . SVG Version: 6.00 Build 0)  -->
<svg version="1.0" id="Layer_1" xmlns="http://www.w3.org/2000/svg" xmlns:xlink="http://www.w3.org/1999/xlink" x="0px" y="0px"
	 viewBox="0 0 19.2 39.3" style="enable-background:new 0 0 19.2 39.3;" xml:space="preserve" fill="#ffffff">
<g>
	<path d="M19,3.8c-2.1,0-3.8-1.7-3.8-3.8H3.8c0,0.1,0,0.1,0,0.2C3.8,2.3,2.1,4,0,4v31.6c2.1,0,3.8,1.7,3.8,3.7h11.4c0,0,0-0.1,0-0.1
		c0-2.1,1.7-3.8,3.8-3.8c0.1,0,0.1,0,0.2,0V3.8C19.2,3.8,19.1,3.8,19,3.8L19,3.8z M14.6,37.3v0.2l-0.2,0.1h-10l0-0.2
		c0-1.6-1.4-2.9-3-2.9H1.2V5.8h0.2c1.7,0,3-1.4,3-3c0,0,0-0.1,0-0.1l0-0.3l0.3-0.1h10v0.2c0,1.7,1.4,3,3,3l0.4,0v28.7l-0.4,0
		C16,34.3,14.6,35.6,14.6,37.3L14.6,37.3z M5.1,9.4L4,8.4l0.3-0.3l1.1,1L5.1,9.4z M14.3,8.1l1.1,1l-0.3,0.3l-1.1-1L14.3,8.1z
		 M4.6,30.2l1.1,1l-0.3,0.3l-1.1-1L4.6,30.2z M14.6,30.2l1.1,1l-0.3,0.3l-1.1-1L14.6,30.2z M14.2,2.9H4.9c0,1.8-1.5,3.3-3.3,3.4V34
		c1.7,0.1,3.1,1.4,3.2,3.2h9.2c0.1-1.8,1.6-3.3,3.4-3.3V6.1C15.7,6.1,14.3,4.6,14.2,2.9L14.2,2.9z M3.7,8.8c0-0.5,0.4-1,1-1
		c0.5,0,1,0.4,1,1c0,0.5-0.4,1-1,1C4.2,9.7,3.7,9.3,3.7,8.8L3.7,8.8z M5,31.9c-0.5,0-1-0.4-1-1c0-0.5,0.4-1,1-1c0.5,0,1,0.4,1,1
		C6,31.4,5.5,31.9,5,31.9L5,31.9z M6.5,27l2-7.3c-1.3-0.5-2.1-1.7-2.1-3.2c0-1.9,1.5-3.4,3.4-3.4c1.9,0,3.4,1.5,3.4,3.4
		c0,1.3-0.7,2.4-1.8,3l2,7.5C13.4,27,6.8,27,6.5,27L6.5,27z M15,31.9c-0.5,0-1-0.4-1-1c0-0.5,0.4-1,1-1c0.5,0,1,0.4,1,1
		C16,31.4,15.5,31.9,15,31.9L15,31.9z M15.7,8.8c0,0.5-0.4,1-1,1s-1-0.4-1-1s0.4-1,1-1S15.7,8.2,15.7,8.8L15.7,8.8z M15.7,8.8"/>
</g>
</svg>
