<?xml version="1.0" encoding="utf-8"?>
<!-- Generator: Adobe Illustrator 22.1.0, SVG Export Plug-In . SVG Version: 6.00 Build 0)  -->
<svg version="1.0" id="Layer_1" xmlns="http://www.w3.org/2000/svg" xmlns:xlink="http://www.w3.org/1999/xlink" x="0px" y="0px"
	 viewBox="0 0 150.5 341.9" style="enable-background:new 0 0 150.5 341.9;" xml:space="preserve" fill="#ffffff">
<g>
	<path d="M59.4,160.3c4.4,6.2,4,13.3,4.4,20.4c0.4,7,1.2,13.9,2,20.8c0.7,6,1.7,12,2.3,18c1.1,9.3,3.6,18.2,8,26.6
		c2,4,2.7,8.5,2.1,13c-0.4,3.1-2.7,4.3-5.4,2.8c-2.3-1.2-4.4-1.3-6.5,0.3c-0.3,0.2-0.6,0.3-0.9,0.5c-4.4,2.6-7.3,0.9-7.4-4.2
		c0-4.7,0.4-9.5,0-14.2c-0.5-6.7-1.3-13.4-2.2-20c-0.8-5.9-1.8-11.8-2.9-17.7c-1.1-5.6-2.4-11.2-3.6-16.8c-0.4-1.9-1-3.9-1.6-5.8
		c-1.1-3.4-2.4-6.7-5.3-9.2c-1.9-1.6-2.3-6-0.9-8.4c1.3-2.3,2.4-4.7,4-6.8c1.4-1.9,3.2-3.6,5.1-5c1.5-1.2,4.2-0.4,5.8,1.5
		c0.4,0.5,0.8,1.1,1.2,1.6C58.2,158.5,58.8,159.4,59.4,160.3z"/>
	<path d="M81.4,152.5c3.3-0.6,6.5-1.5,9.8-1.8c2.2-0.2,6.1,5.2,6.6,8c0.7,4.4-0.5,8.5-1.1,12.7c-0.9,6-0.8,12.2-0.7,18.4
		c0.1,9.8,1,19.5-0.5,29.3c-0.6,3.9-0.3,8,0.3,11.9c0.7,4.8,2.2,9.5,3.1,14.2c1.4,6.6-1.2,8.2-7,9.5c-0.6,0.1-1.2-0.1-1.7,0.1
		c-2.6,0.9-5.3,1.8-7.4-0.8c-1.6-2-2.5-4.3-2.1-7.2c0.6-4.2,0.4-8.4,0.8-12.6c0.4-4.3,1.4-8.5,1.7-12.8c0.5-6.8,0.8-13.5,0.7-20.3
		c-0.1-6.3-0.6-12.6-1.3-18.9c-0.5-4.1-1.7-8-4.5-11.2C72.8,164.7,74.1,157.2,81.4,152.5z"/>
	<path d="M94.5,339.4c-7.3,5.5-19.9,1-24.9-3.4c-4.5-4-5.6-9.2-6.5-14.4c-0.8-4.5-1-9.2-0.7-13.8c0.2-3.7,2.5-6.8,5.6-8.9
		c1.5-1,4.3,0.2,5.4,2.3c1.5,2.7,3.4,4.9,6.2,6.3c3,1.5,6.1,2.4,9.3,1.5c5.1-1.4,9.6-0.5,13.9,2.3c1.5,1,3,2,4,3.4
		c2.4,3.3,0.5,6.7-0.3,10C105.1,330.8,100.1,336.9,94.5,339.4z"/>
	<path d="M29.8,259.9c-5-10.4-10-20.9-15.2-31.2c-1.6-3.2-3.5-6.3-5.6-9.1c-5.3-6.9-3.4-9.6,1.7-15.5c2.8-3.1,6.6-3.9,10.2-3.5
		c2.3,0.3,4.7,2.3,6.5,4.1c2,2,2,4.4,0.5,7.1c-2.3,4-1.3,8.3-0.2,12.4c2.1,7.2,4.9,14.2,10.5,19.6c2.6,2.4,5.4,4.5,8.3,6.6
		c3,2.2,6.1,4.1,7.6,7.7c1.5,3.3,1.1,7-2.8,8.8c-1.4,0.7-2.7,1.9-3.6,3.2c-3.4,4.3-8.9,4.4-12.1-0.1c-2.2-3.1-3.8-6.6-5.7-9.9
		C29.9,259.8,29.8,259.9,29.8,259.9z"/>
	<path d="M77.8,77.8c2,0.1,4.2,0,6.4,0.3c1.9,0.2,3.7,0.9,5.5,1c1.8,0,2.7,0.8,2.8,2.4c0.1,2.6-0.1,5.1-0.1,7.7
		c0,8.8,0.2,17.6,0.1,26.4c-0.1,8.6,1.6,17,3.9,25.3c0.5,1.6,0.5,3.5,0.3,5.2c-0.3,2-2.1,2.5-3.6,1.9c-4.1-1.5-7.9-0.1-11.7,0.7
		c-3.6,0.8-6.8-0.8-6.8-4.6c0-2.5,0.4-5.2,1.4-7.5c2.8-6.2,3-12.6,2.6-19.3c-0.4-6-0.4-12.1-0.6-18.1c-0.2-4.5,0.1-8.9-2-13.2
		c-0.8-1.6-0.7-3.7-0.6-5.5C75.5,79.8,76.6,79.1,77.8,77.8z"/>
	<path d="M103.3,252.6c-2.2-3.7-1.2-7.4-0.2-11.1c1.4-5.2,3.1-10.3,4.2-15.6c0.7-3.4,0.4-7.1,0.5-10.6c0.2-6.3,0.4-12.6,0.5-18.9
		c0.1-6.2,0.4-12.4-3.2-18c-0.8-1.2,0.6-3.9,1.3-5.8c0.4-1,1.5-1.7,2.3-2.6c2.3-2.6,8.1-3.5,11.3-1.8c3.7,2.1,6,6.5,4.6,10.1
		c-3.2,8-3.8,16.4-5,24.8c-1.1,7.4-2.2,14.7-3.3,22.1c-0.2,1.4-0.6,2.8-1,4.1c-1.6,5.5-0.5,10.8,1.8,15.8c1.3,2.9,1.8,5.6,0,8.3
		c-2,2.9-5.2,3.8-8.4,3.3c-2.1-0.3-3.9-2.1-5.8-3.3C103,253.1,103.1,252.9,103.3,252.6z"/>
	<path d="M137,178.7c2.5-1.4,5.4-0.9,7.5,1c1.1,1,2.6,1.5,3.6,2.6c2.6,2.7,2.9,6.2,1.5,9.3c-3.6,8.6-5.6,17.5-7.4,26.6
		c-1.1,5.4-2.4,10.7-3.5,16c-1.4,6.4-2.8,12.8-4.2,19.2c-0.6,2.6-1.4,5.1-4,6.6c-3.4,2.1-7.8,0.7-9.3-3.1c-0.2-0.5-0.4-1.2-0.3-1.7
		c0.6-3.9,1-7.9,2-11.8c0.8-3.2,2.6-6.1,3.7-9.2c2.3-6.7,4.6-13.5,6.5-20.4c1.3-4.7,2.3-9.5,2.7-14.4c0.2-2.5-1-5.1-1.6-7.7
		c-0.4-1.4-1-2.8-1.3-4.2C131.9,183.3,133.2,180.8,137,178.7z"/>
	<path d="M40.3,149.1c0.1-1.4-0.2-3.5,0.3-5.4c1.1-3.8,2.8-7.5,3.8-11.3c0.8-2.9,1.1-5.9,1.5-8.8c0.6-5.2,1.2-10.4,1.4-15.6
		c0.1-3.2-0.6-6.4-1.1-9.6C46,97.1,45,96,44.8,94.7c-0.1-1.3,0-3,0.7-3.8c0.7-0.7,2.5-0.8,3.6-0.5c2.3,0.6,4.5,0.8,6.7-0.2
		c3.3-1.5,6.3,0.8,6.2,4.7c-0.1,2.6-0.9,5.1-1.1,7.6c-0.4,4.7-0.8,9.4-1,14.1c-0.2,4.2-0.3,8.4-0.5,12.7c-0.2,4.7-0.4,9.2,1.9,13.6
		c1,2,1.1,4.5,1.1,6.8c0.1,2.8-2.5,4.2-4.9,2.9c-2.3-1.3-4.4-1.9-6.6,0.3c-0.3,0.3-1.2,0.2-1.9,0.1c-0.7,0-1.5-0.4-2.2-0.3
		C44.5,152.9,42,151.7,40.3,149.1z"/>
	<path d="M107.1,99.7c1.9,0.4,3.8,0.8,5.7,1.1c0.9,0.2,1.8,0.5,2.6,0.4c3.5-0.3,5,1,4.7,4.6c-0.2,3.2-0.6,6.4-0.6,9.7
		c0,8.8-0.2,17.7,0.5,26.5c0.4,4.9,2.4,9.6,3.6,14.4c0.5,2.1,0.8,4.3,1.1,6.5c0.2,1.7-0.9,2.2-2.3,2.2c-1.1,0-2.2,0-3.2-0.3
		c-3.8-1.1-7.6-0.7-11.4-0.3c-1.9,0.2-3-1-3.1-2.6c0-2.2,0-4.6,0.9-6.5c2.1-4.4,2.6-8.8,2.1-13.5c-0.5-5.5-0.7-11.1-0.7-16.7
		c0-5.5-0.1-10.9-2-16.2c-0.7-1.9-0.3-4.2,0-6.3C105.2,101.8,106.2,101,107.1,99.7z"/>
	<path d="M4.1,151.1c0.6-0.1,1.7-0.2,2.7-0.4c2-0.3,4.1-0.5,6.1-1.1c3.2-0.9,5.1,0.7,4.5,4c-0.3,1.6-0.8,3.1-0.9,4.6
		c-0.6,7.3,0.3,14.4,4,20.9c1.9,3.3,3.6,6.7,5.4,10.1c0.5,1,1.1,1.9,1.3,3c1.3,5.4,0.2,6.7-4.9,5.9c-4-0.6-7.6,0.4-11.3,1.1
		c-2.5,0.5-3.7-0.2-3.7-2.8c-0.1-3.4,0.1-6.8,0-10.2c-0.1-4.4,0-8.8-0.8-13.1c-1.1-5.8-2.9-11.4-4.5-17
		C1.6,154.2,1.7,152.5,4.1,151.1z"/>
	<path d="M116.1,311.2c4-2.4,6.6-2.3,9.5-0.3c1,0.6,2.7,1.3,3.4,0.9c1.1-0.7,1.6-2.3,2.2-3.6c0.4-0.9,0.7-2,1-3
		c1.2,0.6,3.1,1,3.5,1.9c1.3,3.3,2.6,6.7,2.8,10.2c0.4,5-1.9,9.6-3.6,14.3c-1,2.7-2.7,4.7-5.3,6c-0.6,0.3-1.1,0.7-1.8,0.9
		c-2,0.7-4.4,2.3-5.8,1.6c-3.3-1.4-5.8-4.3-6.5-8c-0.7-3.6-1.3-7.1-3.8-10.1c-1.7-2-0.4-6.9,2-9
		C114.6,312.1,115.6,311.5,116.1,311.2z"/>
	<path d="M138.1,123.2c2-1.2,6.3-0.8,8.5,1.4c0.6,0.6,1,1.6,0.9,2.4c-0.1,4.9-0.5,9.8-0.5,14.6c0,8.1-0.1,16.1,2.2,24
		c0.6,2.1,0.8,4.4,0.9,6.6c0.1,1.8-1.5,3.2-3.8,3c-2.7-0.2-5.4-0.7-8.1-1c-0.6-0.1-1.3-0.1-2,0.1c-3.1,0.7-4.6-0.7-4-3.8
		c0.3-1.5,0.8-3.1,1.3-4.6c2.1-6,2.3-12.2,2.4-18.5c0-2.1,0-4.4,0.6-6.4c1.4-4.5,0.4-8.8-1-13C134.9,126,135.7,124.7,138.1,123.2z"
		/>
	<path d="M92.5,75.1C90,75,87.6,75,85.3,74.7c-2.2-0.3-4.3-1.2-6.5-1.4c-3.9-0.3-5.4-2.2-4.5-6c1.3-5.1,2.8-10.1,4.2-15.1
		c1.2-4.6,1.2-9.1-0.6-13.6c-0.6-1.4-0.9-3-1-4.6c-0.2-2.3,1.7-3.6,3.8-2.6c2.2,1.1,4.4,1.3,6.7,0.9c0.8-0.2,1.7,0.1,2.5,0.1
		c1.9,0,2.1,1.1,2,2.7C91.5,40.5,90.7,46,91,51.4c0.3,5.2,1.8,10.2,2.7,15.4c0.3,1.8,0.6,3.6,0.5,5.3C94,73,93.2,73.8,92.5,75.1z"/>
	<path d="M119.2,96.1c-2,1.6-4,1.6-6.4,0.8c-2.1-0.7-4.3-0.8-6.5-0.9c-1.7-0.1-2.3-0.7-2-2.5c1-6.8,2.1-13.6,2.7-20.4
		c0.2-2.6-0.7-5.3-1.3-8c-0.3-1.4-1.2-2.6-1.5-4c-0.2-0.9,0-2.2,0.6-2.9c1.9-2.2,10.3-1.8,11.5,0.7c0.9,1.9,1.3,4.4,1.2,6.5
		c-0.6,8.9,1.1,17.5,3.8,25.9C122,93.9,121.7,95.4,119.2,96.1z"/>
	<path d="M48.7,52.7c1.2-0.3,1.9-0.7,2.5-0.6c2.9,0.6,5.8,1.2,8.7,2.1c0.6,0.2,1.4,2,1.1,2.7c-2.3,7.1-1.4,14.2-0.1,21.3
		c0.4,2.2,1.1,4.3,1.6,6.4c0.1,0.6,0.1,1.4-0.2,1.8c-0.2,0.3-1.1,0.3-1.6,0.1c-2.5-1.2-4.8-1.4-7.4-0.1c-0.7,0.3-1.7,0-2.6-0.1
		c-1.3-0.2-2.6-0.7-3.9-0.8c-2.7-0.2-2.8-0.3-2-3c1.4-4.8,2.8-9.6,4.1-14.4c1.2-4.3,1.1-8.5-0.6-12.7C48.1,54.7,48.6,53.6,48.7,52.7
		z"/>
	<path d="M74.7,279.2c1.5-0.4,3.2-1.2,4.9-1.4c2.2-0.2,2.2,1.5,2.2,3.1c0,1.1-0.2,2.3,0.1,3.4c0.6,1.9,1.9,3.1,4.1,3.3
		c3.7,0.3,5.7,2.5,5.9,6.1c0.1,2.3,0,4.6,0,6.9c0,4.5-5.3,6.8-8.9,4.3c-1.8-1.2-3.2-3-5-4.4c-2.3-1.8-4.5-3.7-7.1-5.1
		c-3-1.6-4.5-4.7-3.2-7.9C69.2,284.4,72.2,280.7,74.7,279.2z"/>
	<path d="M90.4,258.1c2.9-0.3,5.8-0.8,8.7-0.9c1.9,0,3,2.1,2.3,4.3c-1.5,4.8-2.5,9.7-1.8,14.7c0.2,1.2,0.4,2.4,0.7,3.6
		c0.9,3.3,1.5,6.5-2.3,8.9c-1.6,1-2.7,1.1-3.9-0.2c-2.1-2.1-4-4.4-7.1-5.3c-0.9-0.3-2-2.2-1.9-3.4c0.1-5.2,0.6-10.4,1-15.5
		c0.2-2.9,2.1-4.4,4.4-5.6C90.5,258.5,90.5,258.3,90.4,258.1z"/>
	<path d="M107.7,260.8c7-2.9,11.8-1.3,16.4,3.6c1.6,1.8,1.2,5.8-1,7.1c-4.6,2.9-6.6,7.5-9,11.9c-0.9,1.7-2.4,3.2-3.9,4.5
		c-1.9,1.6-4.7,0.4-5-2c-0.6-6.2-1.1-12.4-1.5-18.6C103.7,264.3,105.6,262.3,107.7,260.8z"/>
	<path d="M52.6,269.2c4.8-1,9.6-2.2,14.4-3c4.2-0.7,8.5-1,12.8-1.6c2-0.3,2.8,0.2,2.8,2.3c-0.1,1.4,0,2.9-0.4,4.2
		c-0.6,1.8-1.1,3.5-3.9,3.6c-5.4,0.2-9.9,2.4-13,7.1c-2.1,3.2-3.5,3.5-7.2,2.4c-6.2-1.9-8.2-5.3-8.1-11.2
		C49.9,271.8,51.5,270.7,52.6,269.2z"/>
	<path d="M113.6,295c-1.6-3.5-1.3-3.3,0.9-6.3c2.1-2.7,3.5-5.9,5.1-9c1.3-2.5,3.7-4.4,6-4.2c2.7,0.3,5.4,2.1,7.9,3.6
		c0.5,0.3,0.4,2.3-0.1,3.2c-1.7,3.2-1.8,6.4-0.8,9.9c0.4,1.2,0.1,2.7-0.2,3.9c-0.2,0.5-1.5,1.2-2.1,1.1c-2.5-0.5-4.4,0.5-6.1,2
		c-3,2.6-3,2.7-6.1,0.1C116.6,298,115.2,296.5,113.6,295z"/>
	<path d="M114.9,300.6c1.3,1.7,1.7,3.4,0.6,5.3c-1.1,1.9-3,1.9-5,2.2c-4.1,0.6-7.9-0.1-11.5-1.8c-3.8-1.8-5.1-3.8-3.7-7.6
		c0.9-2.4,2.7-4.6,4.6-6.5c2.1-2.2,5-1.5,7,0.1c3,2.4,5.6,5.3,8.4,8C115.2,300.3,115,300.4,114.9,300.6z"/>
	<path d="M149,119.7c-4.4-0.1-8-0.3-11.6-0.3c-1.9,0-2.1-1.2-2-2.7c0.4-4.7,0.9-9.3,1-14c0.1-1.9-0.7-3.9-1.1-5.8
		c-0.5-2.4,0.4-3.5,2.8-3.4c1.3,0.1,2.6,0,3.9-0.1c1.9-0.2,3.5,1.2,3.1,3.1c-1.1,5.7,0.3,11,2.3,16.3
		C148.3,115,148.5,117.5,149,119.7z"/>
	<path d="M6.8,116.5c0.6,3,1.3,5.9,2,8.9c0.2,0.7,0.3,1.5,0.6,2.1c2.3,4.9,4.6,9.8,7,14.6c1.4,2.9,0.6,4.2-2.8,4.3
		c-2.2,0.1-4.4,0.8-6.6,0.9c-2.7,0.1-3.8-1.3-3.3-3.9c1.5-7.6,0.4-14.8-2.1-22c-0.5-1.5,0-3.8,0.8-5.3
		C3.3,114.2,5.3,114.6,6.8,116.5z"/>
	<path d="M114.9,48.7c2.4,3.8,1.8,5.2-2.5,5.6c-2.1,0.2-4.3-0.3-6.3-0.9s-2.3-2.3-1.5-4.1c2.3-4.5,2.2-8.9,0.3-13.6
		c-1.3-3.2,0-7,2.7-8.5c0.7-0.4,2.5-0.4,2.8,0.1c1,1.6,2,3.5,2.3,5.4c0.6,3.9,0.6,7.8,1,11.8C113.8,45.9,114.4,47.3,114.9,48.7z"/>
	<path d="M83.8,2.4C86.2,1,88.2,1.6,88.6,4c0.4,2.5,0.3,5.1,0,7.6c-0.5,4.2-0.3,8.2,1.3,12.2c0.5,1.1,0.7,2.9,0.2,3.8
		c-0.9,1.4-2.5,0.8-4.1,0.2c-1.6-0.6-3.5-0.4-5.1-0.8c-1.3-0.3-3.1-1-3.4-1.9c-0.4-1.1,0.3-2.9,1.1-3.9c2-2.5,3.1-5.1,2.8-8.5
		c-0.3-2.8-0.7-5.6,1-8.2C82.9,3.6,83.5,2.8,83.8,2.4z"/>
	<path d="M57.8,24.2c2.2-1.1,4.5,0.1,4.3,2.6c-0.2,3-0.8,6-1.6,9c-0.9,3.6-1.5,7.1,1,10.5c1.1,1.5,0.7,3-1.4,3.2
		c-1.5,0.1-3.2,0.1-4.6-0.3c-5.8-1.8-6.3-4.4-2.2-8.8c2.3-2.5,2.9-5.5,2.3-8.8C55,28.2,55.8,25.3,57.8,24.2z"/>
	<path d="M141.7,65.6c0.4,2.7,0.7,4.8,0.9,6.8c0.4,4.3,0.7,8.7,1.1,13c0,0.2,0.1,0.5,0.3,0.7c1.7,3.4,1,4.5-2.8,4.5
		c-4.8,0.1-6.8-2.5-5-7.1c1.8-4.8,1.4-9.8-0.1-14.6c-0.7-2.1,0-3.7,1.7-4.3C138.7,64.2,140.3,65.2,141.7,65.6z"/>
</g>
</svg>
